<?xml version="1.0" encoding="utf-8"?>
<!-- Generator: Adobe Illustrator 26.3.1, SVG Export Plug-In . SVG Version: 6.00 Build 0)  -->
<svg version="1.1" id="Layer_1" xmlns="http://www.w3.org/2000/svg" xmlns:xlink="http://www.w3.org/1999/xlink" x="0px" y="0px"
	 viewBox="0 0 595.48 595.38" style="enable-background:new 0 0 595.48 595.38;" xml:space="preserve">
<style type="text/css">
	.st0{clip-path:url(#SVGID_00000072960467235171534190000009738089060661117619_);}
	.st1{clip-path:url(#SVGID_00000054974113553873772180000015802912118187492012_);}
	.st2{filter:url(#Adobe_OpacityMaskFilter);}
	.st3{clip-path:url(#SVGID_00000096770657469756962740000010041556010345024952_);}
	
		.st4{clip-path:url(#SVGID_00000105398302234117006080000001955140089997593263_);fill:url(#SVGID_00000092452177124077070030000018405084571890139784_);}
	
		.st5{clip-path:url(#SVGID_00000096770657469756962740000010041556010345024952_);mask:url(#SVGID_00000026160670367034916990000011276574391869877154_);}
	
		.st6{clip-path:url(#SVGID_00000041987680489882903790000017288358984711897497_);fill:none;stroke:#ED2027;stroke-width:2.199;stroke-miterlimit:10;}
</style>
<g>
	<g>
		<defs>
			<rect id="SVGID_1_" x="0" y="0" width="595.48" height="595.38"/>
		</defs>
		<clipPath id="SVGID_00000170242739083757396420000005234724312420826502_">
			<use xlink:href="#SVGID_1_"  style="overflow:visible;"/>
		</clipPath>
		<g style="clip-path:url(#SVGID_00000170242739083757396420000005234724312420826502_);">
			<g>
				<defs>
					<rect id="SVGID_00000165201640789917068000000010246019875159561641_" x="0" y="0" width="595.48" height="595.38"/>
				</defs>
				<clipPath id="SVGID_00000174597032700871935880000001141341509813301169_">
					<use xlink:href="#SVGID_00000165201640789917068000000010246019875159561641_"  style="overflow:visible;"/>
				</clipPath>
				<g style="clip-path:url(#SVGID_00000174597032700871935880000001141341509813301169_);">
					<g>
						<g>
							<defs>
								<rect id="SVGID_00000021110467514065575090000002107412980259256492_" x="-9" y="-7" width="613.48" height="603.38"/>
							</defs>
							<clipPath id="SVGID_00000118391777626085979300000011581535852956068745_">
								<use xlink:href="#SVGID_00000021110467514065575090000002107412980259256492_"  style="overflow:visible;"/>
							</clipPath>
							<defs>
								<filter id="Adobe_OpacityMaskFilter" filterUnits="userSpaceOnUse" x="-9" y="-7" width="613.48" height="603.38">
									<feColorMatrix  type="matrix" values="1 0 0 0 0  0 1 0 0 0  0 0 1 0 0  0 0 0 1 0"/>
								</filter>
							</defs>
							
								<mask maskUnits="userSpaceOnUse" x="-9" y="-7" width="613.48" height="603.38" id="SVGID_00000026160670367034916990000011276574391869877154_">
								<g class="st2">
									<g>
										<defs>
											<rect id="SVGID_00000083071514277697950320000016093756702378029234_" x="-9" y="-7" width="613.48" height="603.38"/>
										</defs>
										
											<clipPath id="SVGID_00000110446770948575830610000018082458737553219237_" style="clip-path:url(#SVGID_00000118391777626085979300000011581535852956068745_);">
											<use xlink:href="#SVGID_00000083071514277697950320000016093756702378029234_"  style="overflow:visible;"/>
										</clipPath>
										
											<linearGradient id="SVGID_00000005950043761085087360000009523670168520555951_" gradientUnits="userSpaceOnUse" x1="0.075" y1="122.898" x2="1.075" y2="122.898" gradientTransform="matrix(427.1921 120.0783 120.0783 -427.1921 -14714.7139 52724.0625)">
											<stop  offset="0" style="stop-color:#FFFFFF"/>
											<stop  offset="1" style="stop-color:#000000"/>
										</linearGradient>
										
											<polygon style="clip-path:url(#SVGID_00000110446770948575830610000018082458737553219237_);fill:url(#SVGID_00000005950043761085087360000009523670168520555951_);" points="
											35.92,-166.81 761.66,37.18 559.56,756.2 -166.18,552.2 										"/>
									</g>
								</g>
							</mask>
							
								<g style="clip-path:url(#SVGID_00000118391777626085979300000011581535852956068745_);mask:url(#SVGID_00000026160670367034916990000011276574391869877154_);">
								<g>
									<g>
										<defs>
											<rect id="SVGID_00000115501992808453806790000006039261077564960938_" x="-9" y="-7" width="613.48" height="603.38"/>
										</defs>
										<clipPath id="SVGID_00000141433155981358966190000010347644380782186913_">
											<use xlink:href="#SVGID_00000115501992808453806790000006039261077564960938_"  style="overflow:visible;"/>
										</clipPath>
										
											<path style="clip-path:url(#SVGID_00000141433155981358966190000010347644380782186913_);fill:none;stroke:#ED2027;stroke-width:2.199;stroke-miterlimit:10;" d="
											M436.42,297.75c-0.03-76.4-62.4-138.72-138.75-138.65c-76.4,0.06-138.76,62.5-138.6,138.79
											c0.15,76.4,62.34,138.55,138.66,138.56C374.09,436.46,436.45,374.09,436.42,297.75z M141.52,298.83
											c-0.65-86.76,70.13-157.21,156.08-157.29c86.04-0.08,156.33,70.16,156.36,156.2c0.04,86.01-70.23,156.32-156.23,156.25
											C211.97,454.02,142.14,384.34,141.52,298.83z M123.99,299.76c-1.15-97.24,78.06-175.69,173.55-175.79
											c95.74-0.09,173.95,78.06,173.98,173.75c0.03,95.67-78.13,173.93-173.78,173.8C202.52,471.61,125.06,394.4,123.99,299.76z
											 M106.45,300.7c-1.65-107.71,85.99-194.17,191.03-194.28c105.43-0.11,191.56,85.97,191.59,191.3
											c0.03,105.32-86.04,191.53-191.33,191.34C193.07,489.19,107.98,404.45,106.45,300.7z M88.91,301.65
											C86.77,183.46,182.83,89,297.41,88.87c115.13-0.13,209.18,93.87,209.21,208.85c0.03,114.96-93.94,209.13-208.87,208.88
											C183.62,506.77,90.9,414.5,88.91,301.65z M71.37,302.59C68.73,173.92,173.22,71.46,297.35,71.31
											c124.82-0.14,226.79,101.78,226.82,226.4c0.04,124.62-101.85,226.73-226.42,226.42
											C174.18,524.36,73.82,424.56,71.37,302.59z M53.83,303.53C50.7,164.39,163.61,53.92,297.29,53.76
											c134.51-0.16,244.4,109.68,244.43,243.95S431.96,542.04,297.75,541.67C164.73,541.94,56.74,434.61,53.83,303.53z
											 M36.3,304.48C32.67,154.86,154.01,36.39,297.23,36.21c144.2-0.17,262.02,117.59,262.05,261.5
											c0.03,143.91-117.67,261.93-261.52,261.5C155.28,559.53,39.66,444.66,36.3,304.48z M18.75,305.41
											C14.62,145.32,144.39,18.84,297.16,18.65c153.9-0.19,279.64,125.49,279.67,279.06
											c0.03,153.57-125.57,279.53-279.07,279.04C145.83,577.11,22.59,454.72,18.75,305.41z M1.21,306.36
											C-3.41,135.79,134.78,1.31,297.1,1.1c163.59-0.21,297.25,133.39,297.28,296.6c0.03,163.22-133.47,297.13-296.61,296.58
											C136.39,594.7,5.51,464.77,1.21,306.36z"/>
									</g>
								</g>
							</g>
						</g>
					</g>
				</g>
			</g>
		</g>
	</g>
</g>
</svg>
