<?xml version="1.0" encoding="utf-8"?>
<!-- Generator: Adobe Illustrator 26.3.1, SVG Export Plug-In . SVG Version: 6.00 Build 0)  -->
<svg version="1.1" id="Layer_1" xmlns="http://www.w3.org/2000/svg" xmlns:xlink="http://www.w3.org/1999/xlink" x="0px" y="0px"
	 viewBox="0 0 595.48 595.38" style="enable-background:new 0 0 595.48 595.38;" xml:space="preserve">
<style type="text/css">
	.st0{clip-path:url(#SVGID_00000025410309332892788240000007102950625434949542_);}
	.st1{clip-path:url(#SVGID_00000122711970987982004890000010130933405814881180_);}
	.st2{filter:url(#Adobe_OpacityMaskFilter);}
	
		.st3{clip-path:url(#SVGID_00000039130003674133717600000015817145519920021390_);fill:url(#SVGID_00000073721794236415388670000014926270101576824215_);}
	
		.st4{clip-path:url(#SVGID_00000039130003674133717600000015817145519920021390_);mask:url(#SVGID_00000007417804797119288720000006249256934323923855_);}
	
		.st5{clip-path:url(#SVGID_00000114786081247681434520000012381207685469960374_);fill:none;stroke:#ED2027;stroke-width:2.199;stroke-miterlimit:10;}
</style>
<g>
	<defs>
		<rect id="SVGID_1_" width="595.48" height="595.38"/>
	</defs>
	<clipPath id="SVGID_00000119106344064905978290000014254718387910273188_">
		<use xlink:href="#SVGID_1_"  style="overflow:visible;"/>
	</clipPath>
	<g style="clip-path:url(#SVGID_00000119106344064905978290000014254718387910273188_);">
		<defs>
			<rect id="SVGID_00000073003234233293986040000015196724972373370523_" width="595.48" height="595.38"/>
		</defs>
		<clipPath id="SVGID_00000083775480092543125590000012118452306749668776_">
			<use xlink:href="#SVGID_00000073003234233293986040000015196724972373370523_"  style="overflow:visible;"/>
		</clipPath>
		<g style="clip-path:url(#SVGID_00000083775480092543125590000012118452306749668776_);">
			<g>
				<defs>
					<rect id="SVGID_00000027586378024493571200000007258261595160281755_" x="-9" y="-7" width="613.48" height="603.38"/>
				</defs>
				<clipPath id="SVGID_00000126312535313181432530000001497651050530057863_">
					<use xlink:href="#SVGID_00000027586378024493571200000007258261595160281755_"  style="overflow:visible;"/>
				</clipPath>
				<defs>
					<filter id="Adobe_OpacityMaskFilter" filterUnits="userSpaceOnUse" x="-9" y="-7" width="613.48" height="603.38">
						<feFlood  style="flood-color:white;flood-opacity:1" result="back"/>
						<feBlend  in="SourceGraphic" in2="back" mode="normal"/>
					</filter>
				</defs>
				
					<mask maskUnits="userSpaceOnUse" x="-9" y="-7" width="613.48" height="603.38" id="SVGID_00000139277673397216013430000009807456315653304196_">
					<g class="st2">
						
							<linearGradient id="SVGID_00000026127320606735206380000000147498658472424364_" gradientUnits="userSpaceOnUse" x1="0" y1="595.725" x2="1" y2="595.725" gradientTransform="matrix(-427.1921 120.0783 120.0783 427.1921 -71012.875 -254257)">
							<stop  offset="0" style="stop-color:#FFFFFF"/>
							<stop  offset="1" style="stop-color:#000000"/>
						</linearGradient>
						
							<polygon style="clip-path:url(#SVGID_00000126312535313181432530000001497651050530057863_);fill:url(#SVGID_00000026127320606735206380000000147498658472424364_);" points="
							761.66,552.2 35.92,756.2 -166.18,37.18 559.56,-166.81 						"/>
					</g>
				</mask>
				
					<g style="clip-path:url(#SVGID_00000126312535313181432530000001497651050530057863_);mask:url(#SVGID_00000139277673397216013430000009807456315653304196_);">
					<g>
						<defs>
							<rect id="SVGID_00000107565469268503683620000008581331539467734950_" x="-9" y="-7" width="613.48" height="603.38"/>
						</defs>
						<clipPath id="SVGID_00000163054070912157933120000009128779018484893606_">
							<use xlink:href="#SVGID_00000107565469268503683620000008581331539467734950_"  style="overflow:visible;"/>
						</clipPath>
						
							<path style="clip-path:url(#SVGID_00000163054070912157933120000009128779018484893606_);fill:none;stroke:#ED2027;stroke-width:2.199;stroke-miterlimit:10;" d="
							M297.75,436.45c76.32-0.01,138.51-62.16,138.66-138.56c0.16-76.29-62.2-138.73-138.6-138.79
							c-76.35-0.07-138.72,62.25-138.75,138.65C159.03,374.09,221.39,436.46,297.75,436.45z M297.75,453.99
							c-86,0.07-156.27-70.24-156.23-156.25c0.03-86.04,70.32-156.28,156.36-156.2c85.95,0.08,156.73,70.53,156.08,157.29
							C453.34,384.34,383.51,454.02,297.75,453.99z M297.74,471.52c-95.65,0.13-173.81-78.13-173.78-173.8
							c0.03-95.69,78.24-173.84,173.98-173.75c95.49,0.1,174.7,78.55,173.55,175.79C470.42,394.4,392.96,471.61,297.74,471.52z
							 M297.74,489.06c-105.29,0.19-191.36-86.02-191.33-191.34c0.03-105.33,86.16-191.41,191.59-191.3
							c105.04,0.11,192.68,86.57,191.03,194.28C487.5,404.45,402.41,489.19,297.74,489.06z M297.73,506.6
							C182.8,506.85,88.83,412.68,88.86,297.72c0.03-114.98,94.08-208.98,209.21-208.85C412.65,89,508.71,183.46,506.57,301.65
							C504.58,414.5,411.86,506.77,297.73,506.6z M297.73,524.13c-124.57,0.31-226.46-101.8-226.42-226.42
							c0.03-124.62,102-226.54,226.82-226.4c124.13,0.15,228.62,102.61,225.98,231.28C521.66,424.56,421.3,524.36,297.73,524.13z
							 M297.73,541.67c-134.21,0.37-244-109.69-243.97-243.96C53.79,163.44,163.68,53.6,298.19,53.76
							c133.68,0.16,246.59,110.63,243.46,249.77C538.74,434.61,430.75,541.94,297.73,541.67z M297.72,559.21
							C153.87,559.64,36.17,441.62,36.2,297.71c0.03-143.91,117.85-261.67,262.05-261.5c143.22,0.18,264.56,118.65,260.93,268.27
							C555.82,444.66,440.2,559.53,297.72,559.21z M297.72,576.75c-153.5,0.49-279.1-125.47-279.07-279.04
							C18.68,144.14,144.42,18.46,298.32,18.65c152.77,0.19,282.54,126.67,278.41,286.76C572.89,454.72,449.65,577.11,297.72,576.75
							z M297.71,594.28C134.57,594.83,1.07,460.92,1.1,297.7C1.13,134.49,134.79,0.89,298.38,1.1
							C460.7,1.31,598.89,135.79,594.27,306.36C589.97,464.77,459.09,594.7,297.71,594.28z"/>
					</g>
				</g>
			</g>
		</g>
	</g>
</g>
</svg>
